<?xml version="1.0" encoding="utf-8"?>
<!-- Generator: Adobe Illustrator 22.1.0, SVG Export Plug-In . SVG Version: 6.00 Build 0)  -->
<svg version="1.1" id="Calque_1" xmlns="http://www.w3.org/2000/svg" xmlns:xlink="http://www.w3.org/1999/xlink" x="0px" y="0px"
	 viewBox="0 0 141.7 141.7" style="enable-background:new 0 0 141.7 141.7;" xml:space="preserve">
<style type="text/css">
	.st0{fill:#FFFFFF;}
</style>
<path d="M132.5,71.2c0,33.5-27.1,60.6-60.6,60.6c-33.4,0-60.5-27.1-60.5-60.6c0-33.4,27.1-60.5,60.5-60.5
	C105.4,10.7,132.5,37.8,132.5,71.2z"/>
<g>
	<path class="st0" d="M46.7,54.5c0-3.3,1.1-6.7,3.2-10.1c2.1-3.4,5.2-6.2,9.3-8.5c4.1-2.2,8.9-3.4,14.3-3.4c5.1,0,9.6,0.9,13.4,2.8
		c3.9,1.9,6.9,4.4,9,7.6c2.1,3.2,3.2,6.7,3.2,10.5c0,3-0.6,5.6-1.8,7.8c-1.2,2.2-2.6,4.2-4.3,5.8c-1.7,1.6-4.6,4.4-8.9,8.2
		c-1.2,1.1-2.1,2-2.9,2.9c-0.7,0.8-1.3,1.6-1.6,2.3c-0.4,0.7-0.6,1.4-0.8,2c-0.2,0.7-0.5,1.9-0.9,3.6c-0.7,3.6-2.7,5.5-6.2,5.5
		c-1.8,0-3.4-0.6-4.6-1.8c-1.2-1.2-1.9-3-1.9-5.3c0-2.9,0.5-5.5,1.4-7.6c0.9-2.2,2.1-4,3.6-5.7c1.5-1.6,3.5-3.6,6.1-5.8
		c2.2-2,3.9-3.4,4.9-4.4c1-1,1.8-2.1,2.5-3.3c0.7-1.2,1-2.6,1-4c0-2.8-1-5.2-3.1-7.1c-2.1-1.9-4.8-2.9-8.1-2.9c-3.8,0-6.7,1-8.5,2.9
		c-1.8,1.9-3.4,4.8-4.6,8.6C59.2,59,57,61,53.7,61c-2,0-3.6-0.7-5-2.1C47.4,57.6,46.7,56.1,46.7,54.5z M72.3,112
		c-2.1,0-4-0.7-5.6-2.1c-1.6-1.4-2.4-3.3-2.4-5.8c0-2.2,0.8-4.1,2.3-5.6c1.5-1.5,3.4-2.3,5.7-2.3c2.2,0,4.1,0.8,5.6,2.3
		c1.5,1.5,2.3,3.4,2.3,5.6c0,2.4-0.8,4.4-2.4,5.8C76.2,111.3,74.4,112,72.3,112z"/>
</g>
</svg>
