<?xml version="1.0" encoding="utf-8"?>
<!-- Generator: Adobe Illustrator 22.1.0, SVG Export Plug-In . SVG Version: 6.00 Build 0)  -->
<svg version="1.1" id="Calque_1" xmlns="http://www.w3.org/2000/svg" xmlns:xlink="http://www.w3.org/1999/xlink" x="0px" y="0px"
	 viewBox="0 0 141.7 141.7" style="enable-background:new 0 0 141.7 141.7;" xml:space="preserve">
<path d="M71.9,10.7c-33.4,0-60.6,27.1-60.6,60.6c0,33.4,27.1,60.6,60.6,60.6c33.4,0,60.6-27.1,60.6-60.6
	C132.5,37.8,105.4,10.7,71.9,10.7z M111.6,71.5c0,0.1,0,0.1,0,0.2c0,0.1,0,0.1,0,0.2c0,0.1,0,0.2,0,0.3c0,0.1,0,0.1,0,0.2
	c0,0,0,0.1,0,0.1c0,0.1,0,0.1,0,0.2l0,0.2c0,0.1,0,0.1-0.1,0.2c0,0.1-0.1,0.3-0.1,0.4c0,0.1,0,0.1-0.1,0.2c0,0.1,0,0.1-0.1,0.2
	c0,0.1,0,0.1-0.1,0.2c0,0.1-0.1,0.2-0.1,0.3c0,0.1-0.1,0.2-0.1,0.3c0,0.1-0.1,0.2-0.1,0.3c0,0.1-0.1,0.2-0.1,0.3
	c-0.1,0.1-0.1,0.2-0.2,0.3c0,0.1-0.1,0.1-0.1,0.2c-0.2,0.3-0.4,0.6-0.7,0.8c0,0-0.1,0.1-0.1,0.1c0,0,0,0,0,0L89.9,95.9
	c-1.5,1.5-3.6,2.3-5.6,2.3c-2,0-4.1-0.8-5.6-2.3c-3.1-3.1-3.1-8.1,0-11.2l5.9-5.9H40.5c-4.4,0-7.9-3.5-7.9-7.9
	c0-4.4,3.5-7.9,7.9-7.9h44.8l-6.7-7c-3-3.2-2.9-8.2,0.3-11.2C82,41.7,87,41.9,90,45l19.4,20.4c0,0,0,0,0,0c0.1,0.1,0.1,0.2,0.2,0.2
	c0.1,0.1,0.2,0.2,0.2,0.3c0,0,0,0,0,0c0.1,0.1,0.1,0.2,0.2,0.3c0.1,0.1,0.1,0.2,0.2,0.3c0.3,0.4,0.5,0.9,0.7,1.3
	c0.1,0.2,0.2,0.5,0.2,0.7c0.1,0.3,0.2,0.7,0.2,1c0,0,0,0.1,0,0.1c0,0.2,0.1,0.5,0.1,0.7v0c0,0.1,0,0.2,0,0.4
	C111.6,71.1,111.6,71.3,111.6,71.5z"/>
</svg>
