<?xml version="1.0" encoding="utf-8"?>
<!-- Generator: Adobe Illustrator 22.1.0, SVG Export Plug-In . SVG Version: 6.00 Build 0)  -->
<svg version="1.1" id="Calque_1" xmlns="http://www.w3.org/2000/svg" xmlns:xlink="http://www.w3.org/1999/xlink" x="0px" y="0px"
	 viewBox="0 0 595.3 595.3" style="enable-background:new 0 0 595.3 595.3;" xml:space="preserve">
<style type="text/css">
	.st0{fill:#724F2B;}
	.st1{fill:#FFED00;}
	.st2{fill:#F3F3C6;}
	.st3{display:none;fill:#F3F3C6;}
</style>
<polygon class="st0" points="248.1,399.4 298,496.2 341.2,399.7 "/>
<path class="st1" d="M315.5,446.7h-36.4c-46.5,0-84.6-38.1-84.6-84.6V215.4c0-46.5,38.1-84.6,84.6-84.6h36.4
	c46.5,0,84.6,38.1,84.6,84.6v146.7C400.1,408.6,362,446.7,315.5,446.7z"/>
<path class="st0" d="M400.1,321.1c-67.8,28.7-149.8,28.7-205.6-0.2v-27.3c55.8,28.8,137.7,28.8,205.6,0.2V321.1z"/>
<path class="st0" d="M205.3,390c52.2,22.3,122.9,22.1,184.1-0.7c0,0,8.1-15.1,9.6-31.1c-67.2,28.1-148.1,28.1-203.6-0.1
	C197.4,374,205.3,390,205.3,390z"/>
<path class="st0" d="M261.9,250.8H259c-3.7,0-6.8-3.1-6.8-6.8v-24c0-3.7,3.1-6.8,6.8-6.8h2.9c3.7,0,6.8,3.1,6.8,6.8v24
	C268.7,247.8,265.6,250.8,261.9,250.8z"/>
<path class="st0" d="M334.4,250.8h-2.9c-3.7,0-6.8-3.1-6.8-6.8v-24c0-3.7,3.1-6.8,6.8-6.8h2.9c3.7,0,6.8,3.1,6.8,6.8v24
	C341.2,247.8,338.1,250.8,334.4,250.8z"/>
<path class="st2" d="M411.6,323.3c0-81.8,41.4-146.7,136.4-140.2C548.9,275.4,489.7,323.3,411.6,323.3z"/>
<path class="st2" d="M182.8,323.3c0-81.8-41.4-146.7-136.4-140.2C45.4,275.4,104.7,323.3,182.8,323.3z"/>
<path class="st3" d="M175.5,322.9c0,87.1-44,156.1-145.1,149.1C29.4,373.9,92.4,322.9,175.5,322.9z"/>
<path class="st3" d="M418.9,322.9c0,87.1,44,156.1,145.1,149.1C565,373.9,501.9,322.9,418.9,322.9z"/>
</svg>
